<svg width="512" height="512" viewBox="0 0 512 512" fill="none" xmlns="http://www.w3.org/2000/svg">
<rect width="512" height="512" rx="100" fill="white"/>
<g clip-path="url(#clip0_20_9)">
<mask id="mask0_20_9" style="mask-type:luminance" maskUnits="userSpaceOnUse" x="46" y="82" width="443" height="349">
<path d="M488.349 82H46V431H488.349V82Z" fill="white"/>
</mask>
<g mask="url(#mask0_20_9)">
<path d="M484.183 225.376C473.368 218.084 444.834 214.959 424.117 220.558C422.944 199.983 412.391 182.533 392.846 167.427L385.68 162.609L380.859 169.901C371.478 184.226 367.439 203.369 368.872 220.688C369.915 231.367 373.693 243.347 380.859 252.072C353.888 267.699 329.002 264.183 218.904 264.183H49.0003C48.4791 289.056 52.5182 336.848 82.8767 375.655C86.2644 379.952 89.9126 384.119 93.9517 388.156C118.708 412.899 155.972 431 211.868 431.13C297.08 431.13 370.045 385.161 414.475 273.82C429.068 274.08 467.635 276.424 486.528 239.962C487.049 239.31 491.349 230.325 491.349 230.325L484.183 225.507V225.376ZM160.011 202.718H112.193V250.51H160.011V202.718ZM221.77 202.718H173.952V250.51H221.77V202.718ZM283.399 202.718H235.581V250.51H283.399V202.718ZM345.159 202.718H297.341V250.51H345.159V202.718ZM98.2514 202.718H50.4335V250.51H98.2514V202.718ZM160.011 142.294H112.193V190.086H160.011V142.294ZM221.77 142.294H173.952V190.086H221.77V142.294ZM283.399 142.294H235.581V190.086H283.399V142.294ZM283.399 82H235.581V129.792H283.399V82Z" fill="#2560FF"/>
</g>
</g>
<defs>
<clipPath id="clip0_20_9">
<rect width="443" height="349" fill="white" transform="translate(46 82)"/>
</clipPath>
</defs>
</svg>
