<svg width="512" height="512" viewBox="0 0 512 512" fill="none" xmlns="http://www.w3.org/2000/svg">
<g clip-path="url(#clip0_48_21)">
<path d="M392 0H120C53.7258 0 0 53.7258 0 120V392C0 458.274 53.7258 512 120 512H392C458.274 512 512 458.274 512 392V120C512 53.7258 458.274 0 392 0Z" fill="#F4F2ED"/>
<path d="M66.0202 253.606C66.0109 287.214 74.7923 320.029 91.49 348.954L64.4233 447.778L165.558 421.26C193.531 436.489 224.872 444.468 256.721 444.47H256.805C361.944 444.47 447.53 358.915 447.575 253.757C447.595 202.8 427.769 154.884 391.747 118.834C355.732 82.7876 307.833 62.9256 256.797 62.9023C151.645 62.9023 66.0652 148.453 66.0218 253.606" fill="url(#paint0_linear_48_21)"/>
<path d="M59.2092 253.544C59.1984 288.361 68.2945 322.35 85.5875 352.31L57.5503 454.678L162.312 427.209C191.177 442.947 223.676 451.245 256.746 451.257H256.831C365.743 451.257 454.403 362.625 454.45 253.702C454.468 200.915 433.929 151.276 396.62 113.935C359.307 76.5984 309.694 56.0217 256.831 56C147.901 56 59.2526 144.62 59.2092 253.544ZM121.597 347.15L117.685 340.941C101.242 314.795 92.5627 284.581 92.5751 253.557C92.6108 163.022 166.291 89.3643 256.893 89.3643C300.769 89.3829 342.003 106.487 373.017 137.519C404.029 168.555 421.094 209.811 421.084 253.69C421.043 344.225 347.361 417.891 256.831 417.891H256.766C227.288 417.876 198.378 409.96 173.166 395L167.166 391.442L104.998 407.741L121.597 347.149V347.15Z" fill="white"/>
<path d="M207.439 170.958C203.74 162.736 199.847 162.571 196.329 162.426C193.448 162.302 190.155 162.312 186.865 162.312C183.572 162.312 178.222 163.55 173.699 168.488C169.172 173.431 156.416 185.375 156.416 209.668C156.416 233.963 174.11 257.44 176.577 260.738C179.047 264.03 210.736 315.478 260.926 335.27C302.637 351.718 311.126 348.447 320.178 347.622C329.233 346.8 349.394 335.681 353.507 324.15C357.623 312.622 357.623 302.74 356.389 300.674C355.155 298.617 351.862 297.381 346.924 294.913C341.985 292.443 317.709 280.498 313.183 278.85C308.656 277.203 305.364 276.381 302.071 281.326C298.778 286.262 289.323 297.381 286.44 300.674C283.561 303.975 280.679 304.386 275.743 301.916C270.802 299.439 254.899 294.231 236.033 277.411C221.354 264.323 211.443 248.16 208.563 243.216C205.682 238.279 208.254 235.603 210.73 233.143C212.949 230.93 215.67 227.377 218.141 224.495C220.603 221.611 221.425 219.554 223.071 216.261C224.719 212.964 223.895 210.081 222.662 207.611C221.425 205.141 211.829 180.721 207.439 170.958Z" fill="#F4F2ED"/>
</g>
<defs>
<linearGradient id="paint0_linear_48_21" x1="255.999" y1="447.778" x2="255.999" y2="62.9023" gradientUnits="userSpaceOnUse">
<stop stop-color="#1FAF38"/>
<stop offset="1" stop-color="#60D669"/>
</linearGradient>
<clipPath id="clip0_48_21">
<rect width="512" height="512" fill="white"/>
</clipPath>
</defs>
</svg>
